<svg xmlns="http://www.w3.org/2000/svg" width="512" height="512" viewBox="0 0 512 512">
  <rect width="512" height="512" fill="#3b82f6" rx="64"/>
  <g fill="white">
    <rect x="96" y="64" width="320" height="384" rx="24" fill="currentColor" opacity="0.9"/>
    <rect x="128" y="96" width="256" height="320" rx="12" fill="#3b82f6"/>
    <g fill="white" opacity="0.8">
      <rect x="160" y="128" width="192" height="24" rx="6"/>
      <rect x="160" y="176" width="144" height="16" rx="4"/>
      <rect x="160" y="208" width="168" height="16" rx="4"/>
      <rect x="160" y="240" width="128" height="16" rx="4"/>
      <rect x="160" y="272" width="152" height="16" rx="4"/>
      <rect x="160" y="304" width="112" height="16" rx="4"/>
      <rect x="160" y="336" width="136" height="16" rx="4"/>
      <rect x="160" y="368" width="96" height="16" rx="4"/>
    </g>
    <rect x="352" y="96" width="32" height="24" rx="4" fill="#60a5fa"/>
  </g>
</svg>
